<svg xmlns="http://www.w3.org/2000/svg" viewBox="0 0 1300 1300">
  <defs>
    <linearGradient id="logoGradient" x1="531.81" y1="765.53" x2="1239.28" y2="57.35" gradientUnits="userSpaceOnUse">
      <stop offset="0" stop-color="#ff7f00" />
      <stop offset="1" stop-color="#ff00ae" />
    </linearGradient>
  </defs>
  <path fill="url(#logoGradient)" fill-rule="nonzero" d="M219.59 605.89l337.84 0c75.28,0 136.67,61.4 136.67,136.67l0 337.84c0,18.81 10.73,34.88 28.12,42.09 17.39,7.2 36.34,3.43 49.65,-9.87l466.7 -466.7c26.62,-26.61 40.03,-59 40.03,-96.64l0 -391.22c0,-75.28 -61.39,-136.67 -136.67,-136.67l-391.21 0c-37.64,0 -70.03,13.42 -96.65,40.03l-466.69 466.7c-13.31,13.31 -17.08,32.26 -9.88,49.65 7.2,17.39 23.27,28.13 42.09,28.13zm-75.23 666.81l380.62 -140.69c36.46,-13.48 59.53,-46.59 59.53,-85.46l0 -258.18c0,-40.15 -32.75,-72.89 -72.89,-72.89l-258.17 0c-38.87,0 -71.99,23.07 -85.46,59.53l-140.67 380.64c-12.62,34.15 -4.7,70.28 21.04,96.02 25.74,25.74 61.87,33.65 96.02,21.04z" />
</svg>
